<svg viewBox="0 0 1500 745" width="1500" xmlns:ev="http://www.w3.org/2001/xml-events" xmlns="http://www.w3.org/2000/svg" xmlns:xlink="http://www.w3.org/1999/xlink" height="745"><defs/><g transform="translate(5.5,5.5)" id="page1"><rect x="0" width="1490" fill="#ffffff" y="0" height="735"/><path fill-opacity="0.5" fill-rule="evenodd" fill="#fcf1ea" d="M16,0L1433.7,0C1442.5,0,1449.7,7.2,1449.7,16L1449.7,687C1449.7,695.9,1442.5,703,1433.7,703L16,703C7.2,703,0,695.9,0,687L0,16C0,7.2,7.2,0,16,0z" transform="translate(19.71,15.76)" id="shape1"/><path fill-opacity="0.8" stroke-opacity="0.8" fill-rule="evenodd" fill="#d7d7d7" d="M0,72.6L73.6,72.6L36.8,0L0,72.6z" transform="matrix(-1,0,0,-1,1041,257)" id="shape2" stroke="#d7d7d7"/><path fill-rule="evenodd" stroke-width="3" fill="#ffce80" d="M0,60C0,26.9,26.9,0,60,0C93.1,0,120,26.9,120,60C120,93.1,93.1,120,60,120C26.9,120,0,93.1,0,60z" transform="translate(945.44,556.25)" id="shape3" stroke="#323232"/><path stroke-width="3" fill="none" d="M148.7,128L148.7,11C148.7,4.9,143.7,0,137.7,0L11,0C4.9,0,0,4.9,0,11L0,128C0,134.1,4.9,139,11,139L137.7,139C143.7,139,148.7,134.1,148.7,128z" transform="matrix(0,1,-1,0,1076.4,541.1)" id="shape4" stroke="#323232"/><g transform="translate(931.92,569.42)" id="shape5"><text style="fill:#191919;font-family:微软雅黑;font-size:35pt;font-style:italic" xml:space="preserve"><tspan x="52.8" y="61.9">Y</tspan></text></g><path stroke-width="3" fill="none" d="M477,128L477,11C477,4.9,472.1,0,466,0L11,0C4.9,0,0,4.9,0,11L0,128C0,134.1,4.9,139,11,139L466,139C472.1,139,477,134.1,477,128z" transform="translate(37.5,43.83)" id="shape6" stroke="#323232"/><path fill-rule="evenodd" stroke-width="3" fill="#daedd1" d="M0,60C0,26.9,26.9,0,60,0C93.1,0,120,26.9,120,60C120,93.1,93.1,120,60,120C26.9,120,0,93.1,0,60z" transform="translate(48.5,53.33)" id="shape7" stroke="#323232"/><g transform="translate(56.5,70.33)" id="shape8"><text style="fill:#191919;font-family:微软雅黑;font-size:35pt;font-style:italic" xml:space="preserve"><tspan x="28" y="54.7">X</tspan><tspan style="font-size:22.75pt" x="58" textLength="18" y="64.4">1</tspan></text></g><path fill-rule="evenodd" stroke-width="3" fill="#daedd1" d="M0,60C0,26.9,26.9,0,60,0C93.1,0,120,26.9,120,60C120,93.1,93.1,120,60,120C26.9,120,0,93.1,0,60z" transform="translate(189.5,53.33)" id="shape9" stroke="#323232"/><g transform="translate(192.5,70.33)" id="shape10"><text style="fill:#191919;font-family:微软雅黑;font-size:35pt;font-style:italic" xml:space="preserve"><tspan x="28" y="54.7">X</tspan><tspan style="font-size:22.75pt" x="58" textLength="18" y="64.4">2</tspan></text></g><g transform="translate(311.5,53.33)" id="shape11"><text style="fill:#191919;font-family:微软雅黑;font-size:40pt" xml:space="preserve"><tspan x="7" y="62">...</tspan></text></g><path fill-rule="evenodd" stroke-width="3" fill="#daedd1" d="M0,60C0,26.9,26.9,0,60,0C93.1,0,120,26.9,120,60C120,93.1,93.1,120,60,120C26.9,120,0,93.1,0,60z" transform="translate(365.5,53.33)" id="shape12" stroke="#323232"/><g transform="translate(368.5,70.33)" id="shape13"><text style="fill:#191919;font-family:微软雅黑;font-size:35pt;font-style:italic" xml:space="preserve"><tspan x="28.3" y="54.7">X</tspan><tspan style="font-size:22.75pt" x="58.3" textLength="17.3" y="64.4">T</tspan></text></g><path stroke-width="3" fill="none" d="M477,128L477,11C477,4.9,472.1,0,466,0L11,0C4.9,0,0,4.9,0,11L0,128C0,134.1,4.9,139,11,139L466,139C472.1,139,477,134.1,477,128z" transform="translate(37.5,195.33)" id="shape14" stroke="#323232"/><path fill-rule="evenodd" stroke-width="3" fill="#cbe3f8" d="M0,60C0,26.9,26.9,0,60,0C93.1,0,120,26.9,120,60C120,93.1,93.1,120,60,120C26.9,120,0,93.1,0,60z" transform="translate(48.5,204.83)" id="shape15" stroke="#323232"/><g transform="translate(56.5,221.83)" id="shape16"><text style="fill:#191919;font-family:微软雅黑;font-size:35pt;font-style:italic" xml:space="preserve"><tspan x="26.7" y="54.7">A</tspan><tspan style="font-size:22.75pt" x="59.3" textLength="18" y="64.4">1</tspan></text></g><path fill-rule="evenodd" stroke-width="3" fill="#cbe3f8" d="M0,60C0,26.9,26.9,0,60,0C93.1,0,120,26.9,120,60C120,93.1,93.1,120,60,120C26.9,120,0,93.1,0,60z" transform="translate(189.5,204.83)" id="shape17" stroke="#323232"/><g transform="translate(192.5,221.83)" id="shape18"><text style="fill:#191919;font-family:微软雅黑;font-size:35pt;font-style:italic" xml:space="preserve"><tspan x="26.7" y="54.7">A</tspan><tspan style="font-size:22.75pt" x="59.3" textLength="18" y="64.4">2</tspan></text></g><g transform="translate(311.5,204.83)" id="shape19"><text style="fill:#191919;font-family:微软雅黑;font-size:40pt" xml:space="preserve"><tspan x="7" y="62">...</tspan></text></g><path fill-rule="evenodd" stroke-width="3" fill="#cbe3f8" d="M0,60C0,26.9,26.9,0,60,0C93.1,0,120,26.9,120,60C120,93.1,93.1,120,60,120C26.9,120,0,93.1,0,60z" transform="translate(365.5,204.83)" id="shape20" stroke="#323232"/><g transform="translate(368.5,221.83)" id="shape21"><text style="fill:#191919;font-family:微软雅黑;font-size:35pt;font-style:italic" xml:space="preserve"><tspan x="27" y="54.7">A</tspan><tspan style="font-size:22.75pt" x="59.7" textLength="17.3" y="64.4">T</tspan></text></g><path stroke-width="3" fill="none" d="M477,128L477,11C477,4.9,472.1,0,466,0L11,0C4.9,0,0,4.9,0,11L0,128C0,134.1,4.9,139,11,139L466,139C472.1,139,477,134.1,477,128z" transform="translate(37.5,550.16)" id="shape22" stroke="#323232"/><path fill-opacity="0.5" fill-rule="evenodd" stroke-width="3" fill="#cbe3f8" d="M0,60C0,26.9,26.9,0,60,0C93.1,0,120,26.9,120,60C120,93.1,93.1,120,60,120C26.9,120,0,93.1,0,60z" transform="translate(48.5,559.66)" id="shape23" stroke="#323232"/><g transform="translate(56.5,576.66)" id="shape24"><text style="fill:#191919;font-family:微软雅黑;font-size:35pt;font-style:italic" xml:space="preserve"><tspan x="26.7" y="54.7">A</tspan><tspan style="font-size:22.75pt" x="59.3" textLength="18" y="64.4">1</tspan></text></g><path fill-opacity="0.5" fill-rule="evenodd" stroke-width="3" fill="#cbe3f8" d="M0,60C0,26.9,26.9,0,60,0C93.1,0,120,26.9,120,60C120,93.1,93.1,120,60,120C26.9,120,0,93.1,0,60z" transform="translate(189.5,559.66)" id="shape25" stroke="#323232"/><g transform="translate(192.5,576.66)" id="shape26"><text style="fill:#191919;font-family:微软雅黑;font-size:35pt;font-style:italic" xml:space="preserve"><tspan x="26.7" y="54.7">A</tspan><tspan style="font-size:22.75pt" x="59.3" textLength="18" y="64.4">2</tspan></text></g><g transform="translate(311.5,559.66)" id="shape27"><text style="fill:#191919;font-family:微软雅黑;font-size:40pt" xml:space="preserve"><tspan x="7" y="62">...</tspan></text></g><path fill-opacity="0.5" fill-rule="evenodd" stroke-width="3" fill="#cbe3f8" d="M0,60C0,26.9,26.9,0,60,0C93.1,0,120,26.9,120,60C120,93.1,93.1,120,60,120C26.9,120,0,93.1,0,60z" transform="translate(365.5,559.66)" id="shape28" stroke="#323232"/><g transform="translate(368.5,576.66)" id="shape29"><text style="fill:#191919;font-family:微软雅黑;font-size:35pt;font-style:italic" xml:space="preserve"><tspan x="27" y="54.7">A</tspan><tspan style="font-size:22.75pt" x="59.7" textLength="17.3" y="64.4">T</tspan></text></g><path fill-rule="evenodd" stroke-width="3" stroke-dasharray="11,5" fill="#fae9e9" d="M0,60C0,26.9,26.9,0,60,0C93.1,0,120,26.9,120,60C120,93.1,93.1,120,60,120C26.9,120,0,93.1,0,60z" transform="matrix(0,1,-1,0,877.5,132)" id="shape30" stroke="#323232"/><g transform="translate(765.5,147.5)" id="shape31"><text style="fill:#191919;font-family:微软雅黑;font-size:35pt;font-style:italic" xml:space="preserve"><tspan x="29.7" y="54.7">S</tspan><tspan style="font-size:22.75pt" x="56.3" textLength="18" y="64.4">1</tspan></text></g><path fill-rule="evenodd" stroke-width="3" stroke-dasharray="11,5" fill="#fae9e9" d="M0,60C0,26.9,26.9,0,60,0C93.1,0,120,26.9,120,60C120,93.1,93.1,120,60,120C26.9,120,0,93.1,0,60z" transform="matrix(0,1,-1,0,877.5,273)" id="shape32" stroke="#323232"/><g transform="translate(761,290.5)" id="shape33"><text style="fill:#191919;font-family:微软雅黑;font-size:35pt;font-style:italic" xml:space="preserve"><tspan x="29.7" y="54.7">S</tspan><tspan style="font-size:22.75pt" x="56.3" textLength="18" y="64.4">2</tspan></text></g><g transform="matrix(0,1,-1,0,877.5,395)" id="shape34"><text style="fill:#191919;font-family:微软雅黑;font-size:40pt" xml:space="preserve"><tspan x="7" y="62">...</tspan></text></g><path fill-rule="evenodd" stroke-width="3" stroke-dasharray="11,5" fill="#fae9e9" d="M0,60C0,26.9,26.9,0,60,0C93.1,0,120,26.9,120,60C120,93.1,93.1,120,60,120C26.9,120,0,93.1,0,60z" transform="matrix(0,1,-1,0,877.5,449)" id="shape35" stroke="#323232"/><g transform="translate(761,467.5)" id="shape36"><text style="fill:#191919;font-family:微软雅黑;font-size:35pt;font-style:italic" xml:space="preserve"><tspan x="30" y="54.7">S</tspan><tspan style="font-size:22.75pt" x="56.7" textLength="17.3" y="64.4">T</tspan></text></g><path stroke-width="3" fill="none" d="M477,128L477,11C477,4.9,472.1,0,466,0L11,0C4.9,0,0,4.9,0,11L0,128C0,134.1,4.9,139,11,139L466,139C472.1,139,477,134.1,477,128z" transform="matrix(0,1,-1,0,887,121)" id="shape37" stroke="#323232"/><path fill-rule="evenodd" stroke-width="3" stroke-dasharray="11,5" fill="#fae9e9" d="M0,60C0,26.9,26.9,0,60,0C93.1,0,120,26.9,120,60C120,93.1,93.1,120,60,120C26.9,120,0,93.1,0,60z" transform="matrix(0,1,-1,0,1251.5,132)" id="shape38" stroke="#323232"/><path fill-rule="evenodd" stroke-width="3" stroke-dasharray="11,5" fill="#fae9e9" d="M0,60C0,26.9,26.9,0,60,0C93.1,0,120,26.9,120,60C120,93.1,93.1,120,60,120C26.9,120,0,93.1,0,60z" transform="matrix(0,1,-1,0,1251.5,273)" id="shape39" stroke="#323232"/><g transform="matrix(0,1,-1,0,1251.5,395)" id="shape40"><text style="fill:#191919;font-family:微软雅黑;font-size:40pt" xml:space="preserve"><tspan x="7" y="62">...</tspan></text></g><path fill-rule="evenodd" stroke-width="3" stroke-dasharray="11,5" fill="#fae9e9" d="M0,60C0,26.9,26.9,0,60,0C93.1,0,120,26.9,120,60C120,93.1,93.1,120,60,120C26.9,120,0,93.1,0,60z" transform="matrix(0,1,-1,0,1251.5,449)" id="shape41" stroke="#323232"/><g transform="translate(1135,467.5)" id="shape42"><text style="fill:#191919;font-family:微软雅黑;font-size:35pt;font-style:italic" xml:space="preserve"><tspan x="6" y="54.7">S</tspan><tspan style="font-size:22.75pt" x="32.7" textLength="65.3" y="64.4">T+T'</tspan></text></g><path stroke-width="3" fill="none" d="M477,128L477,11C477,4.9,472.1,0,466,0L11,0C4.9,0,0,4.9,0,11L0,128C0,134.1,4.9,139,11,139L466,139C472.1,139,477,134.1,477,128z" transform="matrix(0,1,-1,0,1261,121)" id="shape43" stroke="#323232"/><g transform="translate(1139.5,147.5)" id="shape44"><text style="fill:#191919;font-family:微软雅黑;font-size:35pt;font-style:italic" xml:space="preserve"><tspan x="9.7" y="54.7">S</tspan><tspan style="font-size:22.75pt" x="36.3" textLength="58" y="64.4">T+1</tspan></text></g><g transform="translate(1135,290.5)" id="shape45"><text style="fill:#191919;font-family:微软雅黑;font-size:35pt;font-style:italic" xml:space="preserve"><tspan x="9.7" y="54.7">S</tspan><tspan style="font-size:22.75pt" x="36.3" textLength="58" y="64.4">T+2</tspan></text></g><path fill-rule="evenodd" stroke-width="3" fill="#cbe3f8" d="M0,60C0,26.9,26.9,0,60,0C93.1,0,120,26.9,120,60C120,93.1,93.1,120,60,120C26.9,120,0,93.1,0,60z" transform="matrix(0,1,-1,0,1443.8,134.1)" id="shape46" stroke="#323232"/><path fill-rule="evenodd" stroke-width="3" fill="#cbe3f8" d="M0,60C0,26.9,26.9,0,60,0C93.1,0,120,26.9,120,60C120,93.1,93.1,120,60,120C26.9,120,0,93.1,0,60z" transform="matrix(0,1,-1,0,1443.8,275.1)" id="shape47" stroke="#323232"/><g transform="matrix(0,1,-1,0,1443.8,541.1)" id="shape48"><text style="fill:#191919;font-family:微软雅黑;font-size:40pt" xml:space="preserve"><tspan x="7" y="62">...</tspan></text></g><path fill-rule="evenodd" stroke-width="3" fill="#cbe3f8" d="M0,60C0,26.9,26.9,0,60,0C93.1,0,120,26.9,120,60C120,93.1,93.1,120,60,120C26.9,120,0,93.1,0,60z" transform="matrix(0,1,-1,0,1443.8,415.5)" id="shape49" stroke="#323232"/><path stroke-width="3" fill="none" d="M477,128L477,11C477,4.9,472.1,0,466,0L11,0C4.9,0,0,4.9,0,11L0,128C0,134.1,4.9,139,11,139L466,139C472.1,139,477,134.1,477,128z" transform="matrix(0,1,-1,0,1451,121)" id="shape50" stroke="#323232"/><g transform="translate(1329.25,147.5)" id="shape51"><text style="fill:#191919;font-family:微软雅黑;font-size:35pt;font-style:italic" xml:space="preserve"><tspan x="6.7" y="54.7">A</tspan><tspan style="font-size:22.75pt" x="39.3" textLength="58" y="64.4">T+1</tspan></text></g><g transform="translate(1329.25,290.5)" id="shape52"><text style="fill:#191919;font-family:微软雅黑;font-size:35pt;font-style:italic" xml:space="preserve"><tspan x="6.7" y="54.7">A</tspan><tspan style="font-size:22.75pt" x="39.3" textLength="58" y="64.4">T+2</tspan></text></g><g transform="translate(1329.25,399.5)" id="shape53"><text style="fill:#191919;font-family:微软雅黑;font-size:35pt;font-style:italic" xml:space="preserve"><tspan x="11.7" y="84.7">A</tspan><tspan style="font-size:22.75pt" x="44.3" textLength="58" y="94.4">T+3</tspan></text></g><g transform="translate(1261,201.16)" id="shape54"><path stroke-width="3" fill="none" d="M0,0L40.7,.7" stroke="#191919"/><path stroke-width="1" fill="#191919" stroke-linecap="round" d="M40.8,-4.2L50.5,.9L40.6,5.6L40.8,-4.2" stroke="#191919"/></g><g transform="translate(1261,292.61)" id="shape55"><path stroke-width="3" fill="none" d="M0,0L44.8,-55.2" stroke="#191919"/><path stroke-width="1" fill="#191919" stroke-linecap="round" d="M41,-58.3L51,-62.8L48.6,-52.1L41,-58.3" stroke="#191919"/></g><g transform="translate(1261,435.94)" id="shape56"><path stroke-width="3" fill="none" d="M0,0L43.2,-20.7" stroke="#191919"/><path stroke-width="1" fill="#191919" stroke-linecap="round" d="M41,-25.1L52,-24.9L45.3,-16.3L41,-25.1" stroke="#191919"/></g><g transform="translate(1261,359.5)" id="shape57"><path stroke-width="3" fill="none" d="M0,0L45,-57.8" stroke="#191919"/><path stroke-width="1" fill="#191919" stroke-linecap="round" d="M41.1,-60.8L51,-65.5L48.8,-54.8L41.1,-60.8" stroke="#191919"/></g><g transform="translate(1261,400.9)" id="shape58"><path stroke-width="3" fill="none" d="M0,0L43.4,-35.2" stroke="#191919"/><path stroke-width="1" fill="#191919" stroke-linecap="round" d="M40.3,-39L51,-41.4L46.5,-31.4L40.3,-39" stroke="#191919"/></g><g transform="translate(1261,471.43)" id="shape59"><path stroke-width="3" fill="none" d="M0,0L41.2,-13.4" stroke="#191919"/><path stroke-width="1" fill="#191919" stroke-linecap="round" d="M39.7,-18L50.5,-16.4L42.7,-8.7L39.7,-18" stroke="#191919"/></g><path fill-rule="evenodd" stroke-width="3" fill="#d7d7d7" d="M0,60C0,26.9,26.9,0,60,0C93.1,0,120,26.9,120,60C120,93.1,93.1,120,60,120C26.9,120,0,93.1,0,60z" transform="translate(939.3,51.42)" id="shape60" stroke="#323232"/><path stroke-width="3" fill="none" d="M148.7,128L148.7,11C148.7,4.9,143.7,0,137.7,0L11,0C4.9,0,0,4.9,0,11L0,128C0,134.1,4.9,139,11,139L137.7,139C143.7,139,148.7,134.1,148.7,128z" transform="translate(926.47,44.41)" id="shape61" stroke="#323232"/><g transform="translate(921.82,29.25)" id="shape62"><text style="fill:#191919;font-family:Symbol;font-size:50pt;font-style:italic" xml:space="preserve"><tspan x="60" y="93.8">e</tspan></text></g><path fill-rule="evenodd" stroke-width="7" fill="#fbe5d6" d="M113,0L199,0L312,189L0,189L113,0z" transform="matrix(0,1,-1,0,727.5,54.5)" id="shape63" stroke="#c55a11"/><path stroke-width="3" fill="none" d="M477,128L477,11C477,4.9,472.1,0,466,0L11,0C4.9,0,0,4.9,0,11L0,128C0,134.1,4.9,139,11,139L466,139C472.1,139,477,134.1,477,128z" transform="translate(37.5,399.16)" id="shape64" stroke="#323232"/><path fill-rule="evenodd" stroke-width="3" fill="#edf6ea" d="M0,60C0,26.9,26.9,0,60,0C93.1,0,120,26.9,120,60C120,93.1,93.1,120,60,120C26.9,120,0,93.1,0,60z" transform="translate(48.5,408.66)" id="shape65" stroke="#323232"/><g transform="translate(56.5,425.66)" id="shape66"><text style="fill:#191919;font-family:微软雅黑;font-size:35pt;font-style:italic" xml:space="preserve"><tspan x="28" y="54.7">X</tspan><tspan style="font-size:22.75pt" x="58" textLength="18" y="64.4">1</tspan></text></g><path fill-rule="evenodd" stroke-width="3" fill="#edf6ea" d="M0,60C0,26.9,26.9,0,60,0C93.1,0,120,26.9,120,60C120,93.1,93.1,120,60,120C26.9,120,0,93.1,0,60z" transform="translate(189.5,408.66)" id="shape67" stroke="#323232"/><g transform="translate(192.5,425.66)" id="shape68"><text style="fill:#191919;font-family:微软雅黑;font-size:35pt;font-style:italic" xml:space="preserve"><tspan x="28" y="54.7">X</tspan><tspan style="font-size:22.75pt" x="58" textLength="18" y="64.4">2</tspan></text></g><g transform="translate(311.5,408.66)" id="shape69"><text style="fill:#191919;font-family:微软雅黑;font-size:40pt" xml:space="preserve"><tspan x="7" y="62">...</tspan></text></g><path fill-rule="evenodd" stroke-width="3" fill="#edf6ea" d="M0,60C0,26.9,26.9,0,60,0C93.1,0,120,26.9,120,60C120,93.1,93.1,120,60,120C26.9,120,0,93.1,0,60z" transform="translate(365.5,408.66)" id="shape70" stroke="#323232"/><g transform="translate(368.5,425.66)" id="shape71"><text style="fill:#191919;font-family:微软雅黑;font-size:35pt;font-style:italic" xml:space="preserve"><tspan x="28.3" y="54.7">X</tspan><tspan style="font-size:22.75pt" x="58.3" textLength="17.3" y="64.4">T</tspan></text></g><path fill-opacity="0.8" stroke-opacity="0.8" fill-rule="evenodd" fill="#ffdcac" d="M0,72.5L73.6,72.5L36.8,0L0,72.5z" transform="translate(968.62,467.5)" id="shape72" stroke="#ffdcac"/><path fill-rule="evenodd" stroke-width="7" fill="#fbe5d6" d="M113,0L199,0L312,189L0,189L113,0z" transform="matrix(0,-1,1,0,538.5,679.7)" id="shape73" stroke="#c55a11"/><g transform="translate(538.5,462.93)" id="shape74"><text style="fill:#191919;font-family:微软雅黑;font-size:25pt" xml:space="preserve"><tspan x="32.7" y="72.8">Decoder</tspan></text></g><path fill-rule="evenodd" stroke-width="5" fill="#fbe5d6" d="M113,0L199,0L312,189L0,189L113,0z" transform="matrix(0,1,-1,0,1101.4,206.1)" id="shape75" stroke="#c55a11"/><g transform="translate(905.66,294.54)" id="shape76"><text style="fill:#191919;font-family:微软雅黑;font-size:25pt" xml:space="preserve"><tspan x="8.9" y="63.1">Conditional</tspan><tspan x="20.9" y="106.4">Generator</tspan></text></g><g transform="translate(533,149.77)" id="shape77"><text style="fill:#191919;font-family:微软雅黑;font-size:25pt" xml:space="preserve"><tspan x="35.3" y="72.8">Encoder</tspan></text></g><g transform="translate(1064.5,629.34)" id="shape78"><text style="fill:#191919;font-family:微软雅黑;font-size:26pt" xml:space="preserve"><tspan x="18.5" y="49.2">return</tspan></text></g></g></svg>