<svg viewBox="0 0 768 689" width="768" xmlns:ev="http://www.w3.org/2001/xml-events" xmlns="http://www.w3.org/2000/svg" xmlns:xlink="http://www.w3.org/1999/xlink" height="689"><defs/><g transform="translate(5.5,5.5)" id="page1"><rect x="0" width="758" fill="#ffffff" y="0" height="679"/><path fill-opacity="0.5" fill-rule="evenodd" fill="#fcf1ea" d="M7.9,0L710.1,0C714.5,0,718,6.6,718,14.7L718,632.3C718,640.4,714.5,647,710.1,647L7.9,647C3.5,647,0,640.4,0,632.3L0,14.7C0,6.6,3.5,0,7.9,0z" transform="translate(20,16)" id="shape1"/><path fill-rule="evenodd" stroke-width="3" stroke-dasharray="11,5" fill="#fae9e9" d="M0,60C0,26.9,26.9,0,60,0C93.1,0,120,26.9,120,60C120,93.1,93.1,120,60,120C26.9,120,0,93.1,0,60z" transform="translate(42,202)" id="shape2" stroke="#323232"/><g transform="translate(50,219)" id="shape3"><text style="fill:#191919;font-family:微软雅黑;font-size:35pt;font-style:italic" xml:space="preserve"><tspan x="19" y="54.7">S</tspan><tspan style="font-size:22.75pt" x="45.7" textLength="39.3" y="64.4">i-1</tspan></text></g><path fill-rule="evenodd" stroke-width="3" stroke-dasharray="11,5" fill="#fae9e9" d="M0,60C0,26.9,26.9,0,60,0C93.1,0,120,26.9,120,60C120,93.1,93.1,120,60,120C26.9,120,0,93.1,0,60z" transform="translate(382,202)" id="shape4" stroke="#323232"/><g transform="translate(382,219)" id="shape5"><text style="fill:#191919;font-family:微软雅黑;font-size:35pt;font-style:italic" xml:space="preserve"><tspan x="34.7" y="54.7">S</tspan><tspan style="font-size:22.75pt" x="61.3" textLength="8" y="64.4">i</tspan></text></g><path fill-rule="evenodd" stroke-width="3" fill="#daedd1" d="M0,60C0,26.9,26.9,0,60,0C93.1,0,120,26.9,120,60C120,93.1,93.1,120,60,120C26.9,120,0,93.1,0,60z" transform="translate(42,32)" id="shape6" stroke="#323232"/><g transform="translate(50,49)" id="shape7"><text style="fill:#191919;font-family:微软雅黑;font-size:35pt;font-style:italic" xml:space="preserve"><tspan x="17.3" y="54.7">X</tspan><tspan style="font-size:22.75pt" x="47.3" textLength="39.3" y="64.4">i-1</tspan></text></g><path fill-rule="evenodd" stroke-width="3" fill="#cbe3f8" d="M0,60C0,26.9,26.9,0,60,0C93.1,0,120,26.9,120,60C120,93.1,93.1,120,60,120C26.9,120,0,93.1,0,60z" transform="translate(209,351)" id="shape8" stroke="#323232"/><g transform="translate(217,368)" id="shape9"><text style="fill:#191919;font-family:微软雅黑;font-size:35pt;font-style:italic" xml:space="preserve"><tspan x="16" y="54.7">A</tspan><tspan style="font-size:22.75pt" x="48.7" textLength="39.3" y="64.4">i-1</tspan></text></g><g transform="translate(102,202)" id="shape10"><path stroke-width="2" fill="none" d="M0,0L0,-41.5" stroke="#79b64c"/><path stroke-width="1" fill="#79b64c" stroke-linecap="round" d="M-4.2,-41.5L0,-50L4.2,-41.5L-4.2,-41.5" stroke="#79b64c"/></g><g transform="translate(162,262)" id="shape11"><path stroke-width="2" fill="none" d="M0,0L211.5,0" stroke="#191919"/><path stroke-width="1" fill="#191919" stroke-linecap="round" d="M211.5,-4.2L220,0L211.5,4.2L211.5,-4.2" stroke="#191919"/></g><g transform="matrix(0.77,0.64,-0.64,0.77,102,322)" id="shape12"><path stroke-width="2" fill="none" d="M0,0L130.7,0" stroke="#00b0f0"/><path stroke-width="1" fill="#00b0f0" stroke-linecap="round" d="M130.7,-4.2L139.2,0L130.7,4.2L130.7,-4.2" stroke="#00b0f0"/></g><g transform="matrix(0.79,-0.62,0.62,0.79,329,411)" id="shape13"><path stroke-width="2" fill="none" d="M0,0L135.4,0" stroke="#191919"/><path stroke-width="1" fill="#191919" stroke-linecap="round" d="M135.4,-4.2L143.8,0L135.4,4.2L135.4,-4.2" stroke="#191919"/></g><path fill-rule="evenodd" stroke-width="3" fill="#daedd1" d="M0,60C0,26.9,26.9,0,60,0C93.1,0,120,26.9,120,60C120,93.1,93.1,120,60,120C26.9,120,0,93.1,0,60z" transform="translate(382,32)" id="shape14" stroke="#323232"/><g transform="translate(385,49)" id="shape15"><text style="fill:#191919;font-family:微软雅黑;font-size:35pt;font-style:italic" xml:space="preserve"><tspan x="33" y="54.7">X</tspan><tspan style="font-size:22.75pt" x="63" textLength="8" y="64.4">i</tspan></text></g><g transform="translate(442,202)" id="shape16"><path stroke-width="2" fill="none" d="M0,0L0,-41.5" stroke="#79b64c"/><path stroke-width="1" fill="#79b64c" stroke-linecap="round" d="M-4.2,-41.5L0,-50L4.2,-41.5L-4.2,-41.5" stroke="#79b64c"/></g><path fill-rule="evenodd" stroke-width="3" fill="#ffce80" d="M0,60C0,26.9,26.9,0,60,0C93.1,0,120,26.9,120,60C120,93.1,93.1,120,60,120C26.9,120,0,93.1,0,60z" transform="translate(100,525)" id="shape17" stroke="#323232"/><g transform="translate(502,262)" id="shape18"><path stroke-width="2" fill="none" d="M0,0L60.5,0" stroke="#191919"/><path stroke-width="1" fill="#191919" stroke-linecap="round" d="M60.5,-4.2L69,0L60.5,4.2L60.5,-4.2" stroke="#191919"/></g><g transform="translate(626,202)" id="shape19"><text style="fill:#191919;font-family:微软雅黑;font-size:40pt" xml:space="preserve"><tspan x="7" y="62">...</tspan></text></g><g transform="translate(108,540)" id="shape20"><text style="fill:#191919;font-family:微软雅黑;font-size:35pt;font-style:italic" xml:space="preserve"><tspan x="17" y="54.7">R</tspan><tspan style="font-size:22.75pt" x="47.7" textLength="39.3" y="64.4">i-1</tspan></text></g><g transform="matrix(0.27,0.96,-0.96,0.27,102,322)" id="shape21"><path stroke-width="2" fill="none" d="M0,0L202.6,0" stroke="#eb8989"/><path stroke-width="1" fill="#eb8989" stroke-linecap="round" d="M202.6,-4.2L211.1,0L202.6,4.2L202.6,-4.2" stroke="#eb8989"/></g><g transform="matrix(-0.9,0.44,-0.44,-0.9,269,471)" id="shape22"><path stroke-width="2" fill="none" d="M0,0L113.2,0" stroke="#191919"/><path stroke-width="1" fill="#191919" stroke-linecap="round" d="M113.2,-4.2L121.6,0L113.2,4.2L113.2,-4.2" stroke="#191919"/></g><path fill-rule="evenodd" stroke-width="3" fill="#cbe3f8" d="M0,60C0,26.9,26.9,0,60,0C93.1,0,120,26.9,120,60C120,93.1,93.1,120,60,120C26.9,120,0,93.1,0,60z" transform="translate(546,351)" id="shape23" stroke="#323232"/><g transform="translate(550,368)" id="shape24"><text style="fill:#191919;font-family:微软雅黑;font-size:35pt;font-style:italic" xml:space="preserve"><tspan x="31.7" y="54.7">A</tspan><tspan style="font-size:22.75pt" x="64.3" textLength="8" y="64.4">i</tspan></text></g><g transform="matrix(0.76,0.65,-0.65,0.76,442,322)" id="shape25"><path stroke-width="2" fill="none" d="M0,0L128.4,0" stroke="#00b0f0"/><path stroke-width="1" fill="#00b0f0" stroke-linecap="round" d="M128.4,-4.2L136.9,0L128.4,4.2L128.4,-4.2" stroke="#00b0f0"/></g><path fill-rule="evenodd" stroke-width="3" fill="#ffce80" d="M0,60C0,26.9,26.9,0,60,0C93.1,0,120,26.9,120,60C120,93.1,93.1,120,60,120C26.9,120,0,93.1,0,60z" transform="translate(437,525)" id="shape26" stroke="#323232"/><g transform="translate(437,540)" id="shape27"><text style="fill:#191919;font-family:微软雅黑;font-size:35pt;font-style:italic" xml:space="preserve"><tspan x="32.7" y="54.7">R</tspan><tspan style="font-size:22.75pt" x="63.3" textLength="8" y="64.4">i</tspan></text></g><g transform="matrix(0.26,0.97,-0.97,0.26,442,322)" id="shape28"><path stroke-width="2" fill="none" d="M0,0L201.8,0" stroke="#eb8989"/><path stroke-width="1" fill="#eb8989" stroke-linecap="round" d="M201.8,-4.2L210.3,0L201.8,4.2L201.8,-4.2" stroke="#eb8989"/></g><g transform="matrix(-0.9,0.44,-0.44,-0.9,606,471)" id="shape29"><path stroke-width="2" fill="none" d="M0,0L113.2,0" stroke="#191919"/><path stroke-width="1" fill="#191919" stroke-linecap="round" d="M113.2,-4.2L121.6,0L113.2,4.2L113.2,-4.2" stroke="#191919"/></g><g transform="matrix(0.79,-0.62,0.62,0.79,666,411)" id="shape30"><path stroke-width="2" fill="none" d="M0,0L68.3,0" stroke="#191919"/><path stroke-width="1" fill="#191919" stroke-linecap="round" d="M68.3,-4.2L76.8,0L68.3,4.2L68.3,-4.2" stroke="#191919"/></g></g></svg>