<svg xmlns:xlink="http://www.w3.org/1999/xlink" xmlns="http://www.w3.org/2000/svg" width="1704" xmlns:ev="http://www.w3.org/2001/xml-events" viewBox="0 0 1704 1223" height="1223"><defs/><g id="page1" transform="translate(5.5,5.5)"><rect width="1694" x="0" fill="#ffffff" y="0" height="1213"/><path fill-rule="evenodd" id="shape1" fill-opacity="0.5" transform="translate(19.76,16.25)" fill="#fcf1ea" d="M18.3,0L1636.1,0C1646.2,0,1654.4,12,1654.4,26.9L1654.4,1154.1C1654.4,1169,1646.2,1181,1636.1,1181L18.3,1181C8.2,1181,0,1169,0,1154.1L0,26.9C0,12,8.2,0,18.3,0z"/><g id="shape2" transform="translate(56.68,442.71)"><path fill-rule="evenodd" fill="#fae9e9" d="M0,0L526,0L526,328.1L0,328.1L0,0z"/><text xml:space="preserve" style="fill:#191919;font-family:微软雅黑;font-size:33pt"><tspan x="141.3" y="66.8" style="font-weight:bold">Real States</tspan><tspan x="160.7" y="124.8">heart rate</tspan><tspan x="132.3" y="182.2">temperature</tspan><tspan x="17" y="239.5">white blood cells count</tspan><tspan x="45.3" y="296.8">+ mental health, etc.</tspan></text></g><g id="shape3" transform="translate(199.47,359.14)"><text xml:space="preserve" style="fill:#191919;font-family:微软雅黑;font-size:35pt;font-weight:bold"><tspan x="56.3" y="71.3">Clinician</tspan></text></g><g id="shape4" transform="translate(689.21,456.86)"><text xml:space="preserve" style="fill:#191919;font-family:微软雅黑;font-size:35pt;font-weight:bold"><tspan x="18.9" y="86.9">Database</tspan></text></g><g id="shape5" transform="translate(585,167.35)"><path fill-rule="evenodd" fill="#daedd1" d="M0,0L526,0L526,328.1L0,328.1L0,0z"/><text xml:space="preserve" style="fill:#191919;font-family:微软雅黑;font-size:33pt"><tspan x="5" y="95.3" style="font-weight:bold">Recorded Observations</tspan><tspan x="160.7" y="153.3">heart rate</tspan><tspan x="132.3" y="210.7">temperature</tspan><tspan x="17" y="268">white blood cells count</tspan></text></g><g id="shape6" transform="translate(585,731.23)"><path fill-rule="evenodd" fill="#cbe3f8" d="M0,0L526,0L526,328.1L0,328.1L0,0z"/><text xml:space="preserve" style="fill:#191919;font-family:微软雅黑;font-size:33pt"><tspan x="68" y="95.3" style="font-weight:bold">Recorded Actions</tspan><tspan x="130.7" y="153.3">vasopressor </tspan><tspan x="78.3" y="210.7">intravenous fluid </tspan><tspan x="151" y="268">ventilation</tspan></text></g><g id="shape7" transform="translate(1114,442.71)"><path fill-rule="evenodd" fill="#ffdcac" d="M0,0L526,0L526,328.1L0,328.1L0,0z"/><text xml:space="preserve" style="fill:#191919;font-family:微软雅黑;font-size:33pt"><tspan x="99" y="95.3" style="font-weight:bold">DTR Generator</tspan><tspan x="105.7" y="153.3">treatment type</tspan><tspan x="104.7" y="210.7">treatment time</tspan><tspan x="55" y="268"> medication dosage</tspan></text></g><g id="shape8" transform="translate(1152,327.49)"><text xml:space="preserve" style="fill:#191919;font-family:微软雅黑;font-size:35pt;font-weight:bold"><tspan x="25.7" y="87.1">AI assistant</tspan></text></g><path fill-rule="evenodd" id="shape9" transform="translate(1134,220.99)" stroke-width="2" fill="#f0b0b1" d="M0,13.1L0,13.1C61.3,13.1,110.9,62.8,110.9,124L104.4,124L117.5,137.1L130.6,124L124,124L124,124C124,55.5,68.5,0,0,0L0,13.1z" stroke="#f0b0b1"/><path fill-rule="evenodd" id="shape10" transform="matrix(0,-1,1,0,425.2,365.6)" stroke-width="2" fill="#f0b0b1" d="M0,13.1L0,13.1C61.3,13.1,110.9,62.8,110.9,124L104.4,124L117.5,137.1L130.6,124L124,124L124,124C124,55.5,68.5,0,0,0L0,13.1z" stroke="#f0b0b1"/><path fill-rule="evenodd" id="shape11" transform="translate(1134,802.79)" stroke-width="2" fill="#f0b0b1" d="M0,111.3C61.4,111.3,111.3,61.4,111.3,0L104.9,0L117.6,-12.8L130.4,0L124,0L124,0C124,68.5,68.5,124,0,124L0,111.3z" stroke="#f0b0b1"/><g id="shape12" transform="translate(838.2,632.75)"><path fill="none" stroke="#191919" d=""/></g><g id="shape13" transform="translate(745.21,636.28)"><text xml:space="preserve" style="fill:#191919;font-family:微软雅黑;font-size:35pt;font-weight:bold"><tspan x="24.2" y="76.9">Treatment</tspan></text></g><path fill-rule="evenodd" id="shape14" transform="translate(617.8,574.68)" fill="#4c4c4c" d="M127.5,72.9L127.5,61.1C127.5,58.7,125.5,56.8,123,56.8C120.5,56.8,118.5,58.7,118.5,61.1L118.5,72.9C112.6,73.7,108.1,78.5,107.8,84.3L107.8,91.3C107.6,97.3,112.4,102.4,118.5,102.7L118.5,139C118.6,156.8,104.6,171.6,86.4,172.7C68.3,173.9,52.4,161,50.1,143.4L59,143.4C60.2,143.5,61.4,143,62.3,142.2C63.1,141.4,63.6,140.2,63.5,139L63.5,129.4L73.8,129.4C83.7,129.4,91.7,121.6,91.7,111.9L91.7,32.8C91.7,23.2,83.7,15.3,73.8,15.3L60.4,15.3L60.4,14C60.4,4.4,55.9,0,50.1,0L41.6,0C38.9,0,36.2,1,34.3,2.9C32.3,4.8,31.3,7.4,31.3,10.1L31.3,15.3L17.9,15.3C8,15.3,0,23.2,0,32.8L0,112C0,121.7,8,129.5,17.9,129.5L28.2,129.5L28.2,139.1C28.1,140.3,28.5,141.5,29.4,142.3C30.3,143.2,31.4,143.6,32.6,143.5L40.7,143.5C43.2,165.9,63.2,182.5,86.2,181.4C109.2,180.2,127.3,161.7,127.5,139.1L127.5,102.8C133.4,102.1,137.9,97.3,138.2,91.5L138.2,84.5C138.2,78.5,133.5,73.6,127.5,72.9zM40.3,14.3C40.3,9.5,40.7,9.1,41.6,9.1L50.1,9.1C50.5,9,50.8,9.1,51.1,9.4C51.4,9.7,51.5,10,51.4,10.4C51.4,15.2,51,15.6,50.1,15.6L41.6,15.6C41.2,15.6,40.8,15.5,40.6,15.3C40.3,15,40.1,14.7,40.1,14.3L40.3,14.3zM17.9,24.4L73.8,24.4C78.7,24.4,82.7,28.3,82.7,33.1L82.7,46.3C77.7,42.1,71.4,39.8,64.9,39.7C59,40,53.4,42.3,49.2,46.3C44.3,50.3,38.2,52.6,31.8,52.8C16.1,53.3,10.3,45.8,9.4,44.9L9.4,33.6C9.1,31.2,9.9,28.9,11.5,27.2C13.1,25.4,15.3,24.4,17.7,24.4L17.9,24.4zM8.9,111.9L8.9,55.4C15.3,59.1,22.6,60.9,30,60.7L31.3,60.7C39.7,60.6,47.7,57.6,54.1,52.4C57.1,49.7,60.8,48,64.9,47.6L65.3,47.6C72.4,48.2,78.7,52.1,82.3,58.1L82.3,111.6C82.3,116.4,78.3,120.3,73.4,120.3L17.9,120.3C15.5,120.6,13.1,119.8,11.4,118.1C9.6,116.5,8.7,114.2,8.8,111.9L8.9,111.9zM37.1,131.1L54.1,131.1L45.2,134.6L37.1,131.1zM128.8,91.3C128.8,92.1,128.5,92.9,127.9,93.5C127.3,94.1,126.5,94.4,125.7,94.4L119.4,94.4C118.6,94.4,117.8,94.1,117.2,93.5C116.6,92.9,116.3,92.1,116.3,91.3L116.3,84.3C116.3,83.5,116.6,82.7,117.2,82.1C117.8,81.5,118.6,81.2,119.4,81.3L125.7,81.3C126.5,81.2,127.3,81.5,127.9,82.1C128.5,82.7,128.8,83.5,128.8,84.3L128.8,91.3z"/><g id="group15" transform="translate(1462.57,263.11)"><path id="shape16" transform="translate(39.58,36.76)" stroke-width="10" fill="none" stroke="#4c4c4c" d="M5.1,0L77,0C79.8,0,82.1,2.4,82.1,5.4L82.1,59.2C82.1,62.2,79.8,64.6,77,64.6L5.1,64.6C2.3,64.6,0,62.2,0,59.2L0,5.4C0,2.4,2.3,0,5.1,0z"/><path fill-rule="evenodd" id="shape17" transform="translate(52.95,51.76)" fill="#4c4c4c" d="M53.7,18.6C52.6,18.4,51.4,18.5,50.4,18.8C49.4,19.1,48.6,19.8,48.3,20.5L41.2,20.7L37.1,13.2C37,13,36.6,12.8,36.1,12.8C35.7,12.8,35.3,13,35.2,13.3L28.5,27.6L21,.6C21,.4,20.9,.3,20.7,.2C20.5,0,20.3,0,20.1,0C19.6,0,19.2,.2,19,.5L11.2,20.5L1.9,20.5C1.4,20.5,1,20.7,.6,20.9C.2,21.1,0,21.5,0,21.8C0,22.5,.9,23.1,1.9,23.1L12.4,23.2C12.9,23.2,13.4,23,13.5,22.7L19.5,7.1L27.2,31.8C27.3,32.1,27.7,32.3,28.3,32.3C28.7,32.3,29.1,32.1,29.3,31.8L36.8,16.8L39.5,22.2C39.6,22.4,40,22.6,40.3,22.6L49,22.4C49.7,23.3,51,23.8,52.5,23.8C53.9,23.7,55.1,23.3,55.8,22.6C56.5,21.9,56.7,21.1,56.3,20.3C56,19.5,55,18.8,53.7,18.6z"/><g id="group18"><g id="group19" transform="translate(-0,0)"><path fill-rule="evenodd" id="shape20" transform="translate(44.97,105.26)" fill="#4c4c4c" d="M5,85L66.3,85C69.1,85,71.3,87.1,71.3,89.7L71.3,94.5C71.3,97.2,69.1,99.3,66.3,99.3L5,99.3C2.2,99.3,0,97.2,0,94.5L0,89.7C0,87.1,2.2,85,5,85zM22.3,0L49,0C51,0,52.6,1.3,52.6,2.8C52.6,4.4,51,5.6,49,5.6L22.3,5.6C20.3,5.6,18.7,4.4,18.7,2.8C18.7,1.3,20.3,0,22.3,0zM22.3,7.4L49,7.4C51,7.4,52.6,8.7,52.6,10.2C52.6,11.8,51,13,49,13L22.3,13C20.3,13,18.7,11.8,18.7,10.2C18.7,8.7,20.3,7.4,22.3,7.4z" stroke="#4c4c4c"/><path fill-rule="evenodd" id="shape21" transform="translate(57.49,15.58)" fill="#4c4c4c" d="M0,2.9L5.4,0L19.5,23.3L14.1,26.3L0,2.9zM42.1,0L47.5,2.9L33.3,26.3L28,23.3L42.1,0z"/><path fill-rule="evenodd" id="shape22" transform="translate(45.77,0)" fill="#4c4c4c" d="M0,10.5C0,4.7,4.9,0,11,0C17.1,0,22.1,4.7,22.1,10.5C22.1,16.3,17.1,21,11,21C4.9,21,0,16.3,0,10.5z"/><path fill-rule="evenodd" id="shape23" transform="translate(51.95,5.89)" fill="#fcf1ea" d="M0,4.6C0,2.1,2.2,0,4.9,0C7.5,0,9.7,2.1,9.7,4.6C9.7,7.2,7.5,9.3,4.9,9.3C2.2,9.3,0,7.2,0,4.6z" stroke="#4c4c4c"/><path fill-rule="evenodd" id="shape24" transform="translate(94.26,0)" fill="#4c4c4c" d="M0,10.5C0,4.7,4.9,0,11,0C17.1,0,22.1,4.7,22.1,10.5C22.1,16.3,17.1,21,11,21C4.9,21,0,16.3,0,10.5z"/><path id="shape25" transform="translate(41.63,121.48)" stroke-width="9" fill="none" stroke="#4c4c4c" d="M20.6,0L57.4,0C68.8,0,78,8.8,78,19.6L78,54.8C78,65.6,68.2,63.7,56.8,63.7L19.9,63.7C8.6,63.7,0,65.6,0,54.8L0,19.6C0,8.8,9.2,0,20.6,0z"/><path fill-rule="evenodd" id="shape26" transform="translate(18.61,132.11)" fill="#4c4c4c" d="M15,0C17.8,0,20,2.1,20,4.8L20,20.7C20,23.4,17.8,25.5,15,25.5C12.2,25.5,10,23.4,10,20.7L10,4.8C10,2.1,12.2,0,15,0zM3.6,5C5.7,5,7.3,6.3,7.3,7.8L7.3,17.3C7.3,18.8,5.7,20.1,3.6,20.1C1.6,20.1,0,18.8,0,17.3L0,7.8C0,6.3,1.6,5,3.6,5z" stroke="#4c4c4c"/><path fill-rule="evenodd" id="shape27" transform="translate(122.62,132.11)" fill="#4c4c4c" d="M5,0C2.2,0,0,2.1,0,4.8L0,20.7C0,23.4,2.2,25.5,5,25.5C7.8,25.5,10,23.4,10,20.7L10,4.8C10,2.1,7.8,0,5,0zM16.4,5C14.4,5,12.7,6.3,12.7,7.8L12.7,17.3C12.7,18.8,14.4,20.1,16.4,20.1C18.4,20.1,20,18.8,20,17.3L20,7.8C20,6.3,18.4,5,16.4,5z" stroke="#4c4c4c"/><path fill-rule="evenodd" id="shape28" transform="translate(0,143.56)" fill="#4c4c4c" d="M0,49.6C0,46.3,1.8,43.3,4.5,41.4C3.7,40.4,3.3,39.1,3.3,37.7C3.3,35.2,4.6,33.1,6.7,31.9C5.9,31.1,5.4,30.1,5.4,29L5.4,4.4C5.4,2,7.7,0,10.5,0C13.4,0,15.6,2,15.6,4.4L15.6,29C15.6,30.1,15.2,31.1,14.4,31.8C16.4,33,17.8,35.2,17.8,37.7C17.8,39.1,17.4,40.4,16.7,41.4C19.4,43.3,21.1,46.3,21.1,49.6C21.1,53.2,19.2,56.3,16.3,58.1L14.8,55.5C16.7,54.2,18,52.1,18,49.6C18,47.1,16.6,44.8,14.4,43.5C13.3,44.2,12,44.6,10.6,44.6C9.1,44.6,7.8,44.2,6.7,43.5C4.5,44.8,3.1,47.1,3.1,49.6C3.1,52.1,4.4,54.2,6.3,55.5L4.8,58.1C1.9,56.3,0,53.2,0,49.6z" stroke="#4c4c4c"/><path fill-rule="evenodd" id="shape29" transform="translate(141.32,143.6)" fill="#4c4c4c" d="M0,49.6C0,46.3,1.8,43.3,4.5,41.4C3.7,40.4,3.3,39.1,3.3,37.7C3.3,35.2,4.6,33.1,6.7,31.9C5.9,31.1,5.4,30.1,5.4,29L5.4,4.4C5.4,2,7.7,0,10.5,0C13.4,0,15.6,2,15.6,4.4L15.6,29C15.6,30.1,15.2,31.1,14.4,31.8C16.4,33,17.8,35.2,17.8,37.7C17.8,39.1,17.4,40.4,16.7,41.4C19.4,43.3,21.1,46.3,21.1,49.6C21.1,53.2,19.2,56.3,16.3,58.1L14.8,55.5C16.7,54.2,18,52.1,18,49.6C18,47.1,16.6,44.8,14.4,43.5C13.3,44.2,12,44.6,10.6,44.6C9.1,44.6,7.8,44.2,6.7,43.5C4.5,44.8,3.1,47.1,3.1,49.6C3.1,52.1,4.4,54.2,6.3,55.5L4.8,58.1C1.9,56.3,0,53.2,0,49.6z" stroke="#4c4c4c"/><path fill-rule="evenodd" id="shape30" transform="translate(100.44,5.89)" fill="#fcf1ea" d="M0,4.6C0,2.1,2.2,0,4.9,0C7.5,0,9.7,2.1,9.7,4.6C9.7,7.2,7.5,9.3,4.9,9.3C2.2,9.3,0,7.2,0,4.6z" stroke="#4c4c4c"/></g></g></g><path fill-rule="evenodd" id="shape31" transform="matrix(0,1,-1,0,549.2,799.6)" stroke-width="2" fill="#f0b0b1" d="M0,111.3C61.4,111.3,111.3,61.4,111.3,0L104.9,0L117.6,-12.8L130.4,0L124,0L124,0C124,68.5,68.5,124,0,124L0,111.3z" stroke="#f0b0b1"/><path fill-rule="evenodd" id="shape32" transform="matrix(0.2,0.98,-0.98,0.2,1318.5,-65.4)" stroke-width="1" fill="#f0b0b1" d="M415.1,30.6L415.1,30.6C173.9,110.2,0,337.3,0,605C0,781,75.1,939.4,195,1049.9L190.9,1054.4L209.5,1054.8L207.3,1036.6L203.2,1041L203.2,1041C85.7,932.7,12.1,777.5,12.1,605C12.1,342.6,182.5,120.1,418.9,42.1L415.1,30.6z" stroke="#f0b0b1"/><path fill-rule="evenodd" id="shape33" transform="translate(88.4,273.63)" fill="#4c4c4c" d="M73.8,49L73.8,39.9L82.6,39.9C85.1,39.9,87.1,37.8,87.1,35.2C87.1,32.6,85.1,30.4,82.6,30.4L73.8,30.4L73.8,21.4C73.8,18.8,71.8,16.6,69.3,16.6C66.7,16.6,64.6,18.8,64.6,21.4L64.6,30.4L55.9,30.4C53.4,30.4,51.3,32.6,51.3,35.2C51.3,37.8,53.4,39.9,55.9,39.9L64.6,39.9L64.6,49C64.6,51.6,66.7,53.7,69.3,53.7C71.8,53.7,73.8,51.6,73.8,49zM137.8,168.8C131.7,147.4,116.5,130,96.5,121.7C109.3,108.8,116.4,90.9,115.7,72.3L115.7,31.9C115.7,14.3,102,0,85,0L53.8,0C36.8,0,23,14.3,23,31.9L23,71.8C22.6,90.3,29.6,108.2,42.3,121.3C22.5,129.8,7.3,147.1,1,168.3C-1,174.4,0,181.1,4.2,185.9C8,191.2,13.9,194,20.2,194L119,194C125.2,194,131.2,191.1,135,185.9C138.6,181,139.4,174.7,137.8,168.8zM32.2,31.9C32.2,25.9,34.4,20.2,38.5,16C42.5,11.8,48,9.5,53.8,9.5L85,9.5C90.7,9.5,96.2,11.8,100.3,16C104.3,20.2,106.6,25.9,106.6,31.9L106.6,62.8C94.6,59.2,82.3,57.2,69.8,57.1C57.1,57.3,44.4,59.2,32.2,62.8L32.2,31.9zM32.2,72.8C44.5,69.3,57.1,67.4,69.8,67.1C82.3,67.3,94.6,69.2,106.6,72.8C106.1,93.2,97.4,110.3,85,118.4C84.5,118.4,84.5,118.4,84.1,118.9C82.8,119.6,81.5,120.4,80.4,121.3C73.7,124.4,66,124.4,59.3,121.3C57.9,120.8,56.6,120,55.6,118.9C55.1,118.9,55.1,118.4,54.7,118.4C41.4,110.8,32.5,93.2,32.2,72.8zM127.2,180.2C125.2,183.1,121.9,184.7,118.5,184.5L19.8,184.5C16.4,184.5,13.2,182.9,11.1,180.2C9.3,177.6,8.7,174.3,9.2,171.2C15.2,150.6,30.7,134.4,50.5,127.9C62.9,134.1,74,134.1,83.6,129.4C106.4,134.1,122,150.4,127.7,171.2C129.6,173.9,129.5,177.7,127.2,180.2z"/><path fill-rule="evenodd" id="shape34" transform="translate(941.49,456.86)" fill="#4c4c4c" d="M70.7,66.8L24.4,66.8C22.4,66.8,20.7,68.5,20.7,70.5C20.7,72.5,22.4,74.2,24.4,74.2L70.7,74.2C71.7,74.3,72.7,73.9,73.4,73.2C74.1,72.5,74.5,71.5,74.4,70.5C74.4,68.5,72.8,66.8,70.7,66.8zM70.7,91.8L24.4,91.8C22.4,91.8,20.7,93.4,20.7,95.5C20.7,97.5,22.4,99.1,24.4,99.1L70.7,99.1C71.7,99.2,72.7,98.8,73.4,98.1C74.1,97.4,74.5,96.5,74.4,95.5C74.4,93.4,72.8,91.8,70.7,91.8zM141.5,76.8L141.5,29C141.5,24.1,139.6,19.4,136.1,16C132.7,12.5,127.9,10.6,123,10.7L106.8,10.7L106.8,3.7C106.8,1.6,105.2,0,103.1,0C101.1,0,99.4,1.6,99.4,3.7L99.4,10.7L42,10.7L42,3.7C42,1.6,40.4,0,38.3,0C36.3,0,34.7,1.6,34.7,3.7L34.7,10.7L18.5,10.7C13.5,10.6,8.8,12.5,5.3,16C1.9,19.4,0,24.1,0,29L0,115.5C0,120.4,1.9,125.1,5.3,128.5C8.8,132,13.5,133.9,18.5,133.8L99.1,133.8C110.1,141.1,124.2,141.8,135.8,135.6C147.4,129.3,154.5,117.3,154.5,104.2C154.7,93.5,149.9,83.4,141.5,76.8zM18.1,17.8L34.3,17.8L34.3,25.1C34.3,27.2,36,28.8,38,28.8C40.1,28.8,41.7,27.2,41.7,25.1L41.7,17.8L99.1,17.8L99.1,25.1C99.1,27.2,100.8,28.8,102.8,28.8C104.9,28.8,106.5,27.2,106.5,25.1L106.5,17.8L122.7,17.8C125.7,17.7,128.5,18.9,130.6,20.9C132.7,23,133.9,25.9,133.8,28.8L133.8,37.6L6.7,37.6L6.7,28.8C7.1,22.8,12.1,18,18.1,17.8zM18.1,126.6C15.2,126.7,12.3,125.5,10.2,123.4C8.1,121.4,7,118.5,7.1,115.6L7.1,44.9L134,44.9L134,71.6C129.2,69.3,123.9,68.1,118.6,68C104.8,67.9,92.2,75.8,86.3,88.2C80.4,100.6,82.2,115.2,91,125.8L18.1,126.6zM118.6,132.5C112.6,132.5,106.8,130.5,102.1,127C91.9,119.8,87.6,107,91.4,95.2C95.2,83.5,106.2,75.5,118.6,75.6C124.7,75.6,130.6,77.6,135.6,81.1C145.5,88.4,149.6,101.2,145.8,112.9C141.9,124.5,131,132.5,118.6,132.5zM133,102.4L118.2,102.4L118.2,87.7C118.2,85.7,116.6,84,114.5,84C112.5,84,110.8,85.7,110.8,87.7L110.8,106.1C110.8,107.1,110.8,108,111.8,108.7C112.5,109.4,113.5,109.8,114.5,109.8L133,109.8C134,109.8,135,109.4,135.7,108.7C136.4,108,136.7,107.1,136.7,106.1C136.7,104,135,102.4,133,102.4z"/><path fill-rule="evenodd" id="shape35" transform="matrix(-0.2,-0.98,0.98,-0.2,377.9,1280.8)" stroke-width="1" fill="#f0b0b1" d="M415.1,30.6L415.1,30.6C173.9,110.2,0,337.3,0,605C0,781,75.1,939.4,195,1049.9L190.9,1054.4L209.5,1054.8L207.3,1036.6L203.2,1041L203.2,1041C85.7,932.7,12.1,777.5,12.1,605C12.1,342.6,182.5,120.1,418.9,42.1L415.1,30.6z" stroke="#f0b0b1"/></g></svg>